<?xml version="1.0" encoding="utf-8"?>
<!-- Generator: Adobe Illustrator 16.0.0, SVG Export Plug-In . SVG Version: 6.00 Build 0)  -->
<!DOCTYPE svg PUBLIC "-//W3C//DTD SVG 1.1//EN" "http://www.w3.org/Graphics/SVG/1.1/DTD/svg11.dtd">
<svg version="1.1" id="Layer_1" xmlns="http://www.w3.org/2000/svg" xmlns:xlink="http://www.w3.org/1999/xlink" x="0px" y="0px"
	 width="665.948px" height="193.337px" viewBox="0 0 665.948 193.337" enable-background="new 0 0 665.948 193.337"
	 xml:space="preserve">
<g>
	<path fill="#FFFFFF" d="M0,90.777c4.278-2.541,8.691-6.15,12.035-10.43h1.471v46.266c4.946-3.876,11.764-8.156,20.726-8.156
		c16.179,0,28.212,13.372,28.212,28.882c0,18.855-12.7,33.029-32.758,33.029c-10.164,0-19.792-4.414-28.749-12.035v-1.737
		c2.541-0.535,3.61-2.676,3.61-5.35v-61.243c0-3.075-0.535-6.417-4.546-7.621V90.777z M13.506,162.449
		c0,11.098,16.312,11.366,17.382,11.366c8.558,0,22.062-6.685,22.062-24.87c0-8.693-5.079-23.269-21.66-23.269
		c-7.22,0-13.774,3.879-17.784,7.355V162.449z"/>
	<path fill="#FFFFFF" d="M126.091,164.454c-7.888,10.833-16.847,15.78-27.945,15.78c-17.784,0-29.018-13.104-29.018-31.289
		c0-19.257,13.774-30.22,29.018-30.22c7.888,0,13.907,2.271,18.454,6.951c6.415,6.286,6.017,10.965,9.627,12.569l0.801,3.344
		l-47.602,12.301c1.471,11.769,10.697,18.454,20.191,18.454c8.558,0,15.511-4.145,21.795-11.767L126.091,164.454z M114.192,137.847
		c-2.809-6.82-8.023-12.705-16.714-12.705c-12.17,0-19.523,10.029-18.855,21.931L114.192,137.847z"/>
	<path fill="#FFFFFF" d="M190.812,164.454c-7.888,10.833-16.848,15.78-27.946,15.78c-17.784,0-29.017-13.104-29.017-31.289
		c0-19.257,13.774-30.22,29.017-30.22c7.89,0,13.905,2.271,18.454,6.951c6.417,6.286,6.018,10.965,9.627,12.569l0.801,3.344
		l-47.602,12.301c1.471,11.769,10.697,18.454,20.191,18.454c8.558,0,15.511-4.145,21.795-11.767L190.812,164.454z M178.912,137.847
		c-2.809-6.82-8.023-12.705-16.714-12.705c-12.172,0-19.523,10.029-18.855,21.931L178.912,137.847z"/>
	<path fill="#FFFFFF" d="M198.97,129.153c4.948-2.807,9.627-6.953,12.569-10.696h1.471v13.237
		c7.622-7.622,14.305-12.836,22.197-12.836c1.338,0,2.809,0.133,4.278,0.535l2.274,12.301l-1.873,0.67
		c-3.077-3.211-5.214-4.413-9.226-4.413c-3.878,0-7.89,2.271-11.231,4.948c-3.477,2.673-6.552,5.482-6.552,6.953v30.619
		c0,2.142,2.006,5.35,5.348,5.885v2.006h-20.058v-2.006c3.477-0.668,5.618-2.81,5.618-7.355v-32.894c0-3.208-1.873-4.814-4.815-5.35
		V129.153z"/>
	<path fill="#FFFFFF" d="M245.769,130.358c7.89-4.146,14.575-8.959,19.39-13.774h4.011v8.693c6.415-5.216,12.836-8.693,21.127-8.693
		c8.957,0,14.708,4.012,17.249,9.093c7.22-5.615,13.907-9.093,23-9.093c16.98,0,19.923,12.437,19.923,18.587v31.96
		c0,3.477,1.872,6.953,5.482,7.888v3.344h-29.017v-3.344c4.009-0.399,5.482-3.342,5.482-7.622v-25.674
		c0-7.22-2.807-10.563-8.558-10.563c-4.411,0-9.228,2.14-14.041,5.885v30.22c0,3.477,1.606,7.087,5.35,7.621v3.478h-28.616v-3.209
		c3.878-0.803,5.216-4.814,5.216-8.022v-26.61c0-5.482-2.676-9.228-8.693-9.228c-4.145,0-7.888,1.471-13.905,5.751v30.22
		c0,4.012,1.737,7.22,5.483,8.023v3.075h-28.884v-3.344c3.344-0.399,5.35-3.743,5.35-6.952v-28.615c0-3.075-1.74-5.35-5.35-5.482
		V130.358z"/>
	<path fill="#FFFFFF" d="M366.781,138.428c-1.471-6.417-2.405-9.628-4.145-14.709c5.081-2.271,13.771-5.749,27.145-5.749
		c10.563,0,16.85,2.808,20.858,6.818c9.63,9.628,5.35,37.041,10.029,41.721c0.803,0.803,1.471,1.204,2.809,1.204
		c0.804,0,1.873-0.269,3.342-0.534l2.676,9.358c-4.814,2.81-9.627,3.879-14.307,3.879c-4.682,0-9.632-2.006-11.233-4.948
		c-8.023,3.879-15.243,6.286-23.668,6.286c-14.041,0-21.529-8.023-21.529-20.058c0-5.217,2.006-10.029,5.618-13.64
		c6.15-6.152,16.98-8.693,33.026-9.896c-0.266-5.081-4.146-8.156-10.965-8.156c-7.888,0-13.905,2.674-16.445,7.888L366.781,138.428z
		 M399.007,150.196c-12.971,1.471-22.062,3.878-22.062,10.965c0,4.812,3.075,7.354,8.021,7.354c4.011,0,9.494-1.604,15.378-4.414
		L399.007,150.196z"/>
	<path fill="#FFFFFF" d="M429.36,131.159c8.022-4.413,14.841-8.69,20.058-14.174h3.609v11.232
		c8.023-8.559,14.307-11.232,21.394-11.232c1.205,0,2.274,0.134,3.478,0.269l4.413,19.79l-3.478,1.069
		c-3.208-3.879-6.15-4.948-9.226-4.948c-5.749,0-10.965,3.745-16.445,9.229v25.538c0,3.344,1.87,6.953,5.48,7.087v3.344h-29.016
		v-3.344c3.877-0.535,5.348-3.478,5.348-6.952v-26.878c0-3.743-1.737-6.419-5.615-6.552V131.159z"/>
	<path fill="#FFFFFF" d="M481.506,94.789c8.025-4.012,14.577-8.959,19.792-14.041h3.745v60.173l15.376-13.372
		c1.471-1.338,2.274-2.541,2.274-3.478c0-0.668-0.404-1.202-1.338-1.471v-3.477h25.54v3.344c-2.407,0.401-6.017,3.609-7.354,4.679
		l-14.576,12.437c2.81,2.006,4.948,3.879,6.954,5.885c13.772,13.771,14.174,28.48,20.858,29.55v3.344h-30.084v-3.478
		c2.139-0.668,3.743-2.807,3.743-5.35c0-6.283-7.354-16.578-12.569-20.457l-8.824,7.488v10.029c0,4.277,1.336,8.023,5.615,8.558
		v3.209h-29.017v-3.075c3.475-0.535,5.216-3.344,5.216-6.821v-64.717c0-3.076-2.141-5.217-5.352-5.35V94.789z"/>
</g>
<path fill="#FFFFFF" d="M665.165,30.03l0.783-2.886c0,0-5.332-3.248-0.26-25.393L663.497,0
	c-7.381,2.848-33.159,15.242-55.314,57.119l-13.628-20.646h-2.863c-2.562,1.907-7.408,5.402-10.909,7.151
	c-4.784,2.392-12.183,4.587-12.183,4.587l-0.044,3.038c4.728,1.803,13.847,6.085,26.056,15.453h-26.056l2.064,32.553
	c0,0,3.032,26.938,7.181,38.762c4.016,11.47-1.536,14.999-1.401,30.587c0.14,15.588-0.257,24.733-0.257,24.733h64.754
	c0,0-0.398-9.146-0.26-24.733c0.138-15.588-5.414-19.117-1.396-30.587c4.146-11.824,7.177-38.762,7.177-38.762l0.135-2.162h0.07
	l1.861-30.391h-28.024h-1.139C630.602,54.177,649.151,35.745,665.165,30.03z M638.337,184.124l0.152,6.859h-59.946l0.157-6.859
	H638.337z M645.984,69.052l-1.571,25.689h-71.72l-1.632-25.689H645.984z"/>
</svg>
